<?xml version="1.0" encoding="iso-8859-1"?>
<!-- Generator: Adobe Illustrator 22.0.1, SVG Export Plug-In . SVG Version: 6.00 Build 0)  -->
<svg version="1.1" id="Layer_1" xmlns="http://www.w3.org/2000/svg" xmlns:xlink="http://www.w3.org/1999/xlink" x="0px" y="0px"
	 viewBox="0 0 2048 2048" style="enable-background:new 0 0 2048 2048;" xml:space="preserve">
<g>
	<g>
		<g>
			<path style="fill:#EBB39E;" d="M1420.674,1002.834c-1.928,6.94-3.694,11.971-3.425,22.498
				c0.574,21.736,8.698,41.418,16.508,55.353l126.529,126.529H1151.5l117.237-131.52c6.419-12.941,12.862-31.297,13.362-50.361
				c0.312-11.906-1.999-16.79-4.192-25.337L1420.674,1002.834z"/>
		</g>
	</g>
	<path style="fill:#F7E07F;" d="M1006.592,1421.666c-0.082-27.382,0.155-160.186,25.461-241.738
		c6.219-20.029,13.408-35.247,22.626-49.185c5.176-7.829,27.849-40.735,72.132-63.242c41.156-20.925,79.284-21.849,97.593-21.09
		l38.439,34.278l85.457,76.193l85.457-76.193l38.439-34.278c18.31-0.759,56.438,0.165,97.593,21.09
		c44.283,22.507,66.955,55.414,72.132,63.242c9.219,13.938,16.407,29.156,22.626,49.185
		c25.306,81.552,25.544,214.356,25.462,241.738H1006.592z"/>
	<g>
		<g>
			<path style="fill:#EBCD6D;" d="M1143.882,1445.666c-13.255,0-24-10.745-24-24v-159.283c0-13.255,10.745-24,24-24s24,10.745,24,24
				v159.283C1167.882,1434.921,1157.137,1445.666,1143.882,1445.666z"/>
		</g>
	</g>
	<g>
		<g>
			<path style="fill:#EBCD6D;" d="M1570.073,1445.666c-13.255,0-24-10.745-24-24v-159.283c0-13.255,10.745-24,24-24s24,10.745,24,24
				v159.283C1594.073,1434.921,1583.328,1445.666,1570.073,1445.666z"/>
		</g>
	</g>
	<path style="fill:#CFD8DD;" d="M1037.18,1314.71c18.41,0,33.34-14.93,33.34-33.35V909.82c0-18.42-14.93-33.35-33.34-33.35H391.32
		c-18.41,0-33.34,14.93-33.34,33.35v371.54c0,18.42,14.93,33.35,33.34,33.35H1037.18z"/>
	<g>
		<path style="fill:#F35232;" d="M890.297,758.332H671.85c-5.523,0-10-4.477-10-10V612.334c0-5.523,4.477-10,10-10h218.447
			c5.523,0,10,4.477,10,10v135.998C900.297,753.855,895.82,758.332,890.297,758.332z"/>
		<polygon style="fill:#F35232;" points="883.135,657.628 988.434,617.625 988.434,743.041 883.135,703.038 		"/>
	</g>
	<g>
		<g>
			<path style="fill:#465A65;" d="M761.5,1421.666V1273.25c0-26.095-21.154-47.25-47.25-47.25h0c-26.095,0-47.25,21.154-47.25,47.25
				v148.416H761.5z"/>
		</g>
	</g>
	<g>
		<g>
			<path style="fill:#FFA96B;" d="M1768,1445.666H280c-13.255,0-24-10.745-24-24s10.745-24,24-24h1488c13.255,0,24,10.745,24,24
				S1781.255,1445.666,1768,1445.666z"/>
		</g>
	</g>
	<path style="fill:#F4BAA6;" d="M1502.322,792.733c48.088,15.46,23.258,96.116-13.829,102.363
		c-4.106,19.271-13.484,51.84-36.38,78.939c-12.818,15.171-25.195,23.874-28.287,26.001c-6.84,4.704-21.453,14.554-43.138,19.676
		c-5.752,1.359-27.964,6.155-55.867,0c-5.413-1.194-31.064-7.216-56.574-28.108c-6.511-5.332-30.769-26.174-43.845-62.542
		c-4.234-11.776-6.805-25.814-7.779-33.028c-37.932-11.009-62.624-67.148-21.215-103.299L1205,692l149.894-37
		c0,0,83.106,21,84.606,23S1502.322,792.733,1502.322,792.733z"/>
	<path style="fill:#784132;" d="M1389.047,708.323c-3.193,5.255-8.699,12.665-17.679,18.271c-7.666,4.785-15.419,6.731-22.936,7.464
		c-7.916,0.772-15.893,0.046-23.666-1.636c-7.58-1.64-22.947-3.464-50.998-1.528c-16.299,1.125-33.711,2.013-48.431,9.858
		c-18.767,10.002-25.425,30.771-29.005,50.331c-0.145,0.791-0.602,1.811-1.387,1.639c-0.332-0.073-0.571-0.356-0.776-0.628
		c-5.693-7.56-6.972-19.804-7.969-28.878c-3.178-28.911-2.852-51.815-0.121-58.323c1.65-3.929,10.004-23.129,29.701-42.163
		c31.844-30.772,84.291-46.891,110.973-52.429c21.608-4.485,44.451-6.764,66.776-5.21c12.443,0.866,25.477,2.452,37.578,5.516
		c9.942,2.517,19.797,7.282,25.769,15.62c6.432,8.98,7.99,20.332,15.692,28.561c8.406,8.98,19.871,14.34,28.472,23.112
		c11.503,11.731,22.952,30.193,24.614,46.743c1.497,14.909-5.041,28.983-12.569,41.409c-1.389,2.292-9.411,28.108-10.762,26.682
		c-3.11-3.285-42.447-13.858-73.674-52.085c-7.393-9.051-10.658-12.976-13.436-15.694c-1.855-1.814-7.583-7.243-16.029-13.117
		C1396.451,709.937,1390.618,705.669,1389.047,708.323"/>
</g>
</svg>
